<svg width="12" height="20" viewBox="0 0 12 20" fill="none" xmlns="http://www.w3.org/2000/svg">
<path fill-rule="evenodd" clip-rule="evenodd" d="M0.968875 0.468388C1.03854 0.398543 1.12131 0.343129 1.21243 0.305319C1.30354 0.267509 1.40122 0.248047 1.49988 0.248047C1.59853 0.248047 1.69621 0.267509 1.78733 0.305319C1.87844 0.343129 1.96121 0.398543 2.03088 0.468388L11.0309 9.46839C11.1007 9.53806 11.1561 9.62082 11.1939 9.71194C11.2318 9.80305 11.2512 9.90074 11.2512 9.99939C11.2512 10.098 11.2318 10.1957 11.1939 10.2868C11.1561 10.378 11.1007 10.4607 11.0309 10.5304L2.03088 19.5304C1.89005 19.6712 1.69904 19.7503 1.49988 19.7503C1.30071 19.7503 1.10971 19.6712 0.968875 19.5304C0.828045 19.3896 0.748928 19.1986 0.748928 18.9994C0.748928 18.8002 0.828045 18.6092 0.968875 18.4684L9.43938 9.99939L0.968875 1.53039C0.899031 1.46072 0.843616 1.37796 0.805806 1.28684C0.767997 1.19572 0.748535 1.09804 0.748535 0.999388C0.748535 0.900737 0.767997 0.803055 0.805806 0.711937C0.843616 0.62082 0.899031 0.538056 0.968875 0.468388Z" fill="#AEAEAE"/>
</svg>
